<?xml version="1.0" encoding="utf-8"?>
<!-- Generator: Adobe Illustrator 18.1.0, SVG Export Plug-In . SVG Version: 6.00 Build 0)  -->
<!DOCTYPE svg PUBLIC "-//W3C//DTD SVG 1.1//EN" "http://www.w3.org/Graphics/SVG/1.1/DTD/svg11.dtd">
<svg version="1.1" id="vector_SPH_Logo_Color"
	 xmlns="http://www.w3.org/2000/svg" xmlns:xlink="http://www.w3.org/1999/xlink" x="0px" y="0px" viewBox="0 0 500 130"
	 enable-background="new 0 0 500 130" xml:space="preserve">
<g id="Text">
	<path id="HEALTH" fill="#217AB8" d="M453.6552124,116.0181122h-3.9416199v-6.8990326h-7.1433411v6.8990326h-3.9416199v-17.243927
		h3.9416199v6.8941879h7.1433411v-6.8941879h3.9416199V116.0181122 M433.947113,101.978241h-4.9234314v14.0398712h-3.9416199
		V101.978241h-4.9281311v-3.2040558h13.7931824V101.978241z M418.804657,116.0181122h-10.3497925v-17.243927h3.9416199v14.0398636
		h6.4081726V116.0181122z M397.3988953,109.1190796l-1.8135681-5.7165298
		c-0.1354675-0.4328384-0.236969-0.9479141-0.2902222-1.5476227h-0.0965576
		c-0.0242615,0.5005569-0.1307373,1.0059509-0.3048096,1.5040894l-1.8425598,5.7600632H397.3988953z M403.7733765,116.0181122
		h-4.2318115l-1.1076355-3.4507217h-6.3499451l-1.0979614,3.4507217h-4.20755l6.2727051-17.243927h4.5993042
		L403.7733765,116.0181122z M382.9577026,116.0181122h-10.3401184v-17.243927h9.8515625v3.2040558h-5.9099731v3.6901321h5.6633301
		v3.2040558h-5.6633301v3.9416199h6.3985291V116.0181122z M366.2094116,116.0181122h-3.9416199v-6.8990326h-7.1383972v6.8990326
		h-3.9416199v-17.243927h3.9416199v6.8941879h7.1383972v-6.8941879h3.9416199V116.0181122z"/>
	
		<line id="Splitter" fill="none" stroke="#CCCCCC" stroke-width="2.5" stroke-linecap="round" stroke-linejoin="round" stroke-miterlimit="10" x1="334.8314819" y1="92.3080063" x2="334.8314819" y2="123.7127228"/>
    
	<path id="PERFORMANCE" fill="#217AB8" d="M321.0623169,116.0181122h-9.3582764v-17.243927h8.8697205v1.7241516h-6.9013977
		v5.9148254h6.4081421v1.7217255h-6.4081421v6.1614914h7.3899536V116.0181122 M307.2741089,115.2660675
		c-1.2720337,0.6674118-2.8582764,0.998703-4.7446594,0.998703c-2.4422607,0-4.3912964-0.790741-5.8663635-2.3577118
		c-1.4654236-1.5718079-2.200592-3.6369171-2.200592-6.1856689c0-2.7518768,0.8270569-4.9669113,2.4761963-6.6572189
		c1.6541138-1.6902771,3.74823-2.536644,6.287323-2.536644c1.6248779,0,2.9744263,0.1862106,4.0480957,0.5610123v2.1473312
		c-1.2187805-0.6528931-2.5633545-0.9817581-4.0287781-0.9817581c-1.9539795,0-3.5352783,0.664978-4.7493591,1.9998016
		c-1.209137,1.3299942-1.8182678,3.1097641-1.8182678,5.344162c0,2.1158905,0.5657959,3.7989349,1.7023926,5.0539551
		c1.1316223,1.2550278,2.6210632,1.8910065,4.4638367,1.8910065c1.7023926,0,3.1774597-0.4159241,4.4301758-1.2381058V115.2660675z
		 M290.0276184,116.0181122h-2.4279175l-9.0921021-13.7448349c-0.2322693-0.343399-0.4209595-0.7036896-0.5660706-1.0809326
		h-0.0772705c0.0628967,0.3723907,0.0968323,1.1583176,0.0968323,2.3673935v12.458374h-1.9732971v-17.243927h2.5727844
		l8.8457336,13.5296326c0.3773804,0.5610123,0.6143494,0.9430771,0.7158813,1.1582947h0.0532227
		c-0.0822144-0.505394-0.1161194-1.3469162-0.1161194-2.5438995V98.7741852h1.9683228V116.0181122z M267.7321472,109.3633347
		l-2.7131653-7.2279053c-0.0871582-0.2394028-0.1740723-0.6190491-0.2612305-1.1413803h-0.0483093
		c-0.0871582,0.4812241-0.1790161,0.8633041-0.2852478,1.1413803l-2.698822,7.2279053H267.7321472z M272.5394592,116.0181122
		h-2.2635193l-1.9004822-4.9257965h-7.2931519l-1.7845764,4.9257965h-2.2781067l6.6886902-17.243927h2.1184082
		L272.5394592,116.0181122z M253.5715027,116.0181122h-1.9685822V104.452034c0-0.9189148,0.0532379-2.0336761,0.1644287-3.3564148
		h-0.0482941c-0.1933899,0.7786407-0.3674622,1.3348236-0.5271759,1.668541l-5.9607086,13.253952h-0.9939575l-5.9510498-13.1572342
		c-0.1728363-0.3844757-0.3469086-0.9745102-0.523468-1.7652588h-0.050766
		c0.0628967,0.6891785,0.0978088,1.8160477,0.0978088,3.3830109v11.5394821h-1.9732819v-17.243927h2.6916351l5.3646851,12.0279465
		c0.4145203,0.9189072,0.6829376,1.603241,0.8062592,2.0626984h0.0725403
		c0.3484039-0.9430847,0.6299438-1.6492004,0.8416595-2.1158905l5.472168-11.9747543h2.4860992V116.0181122z
		 M222.0445099,100.4983368v6.4057083h2.8112335c0.5138092,0,0.9914703-0.0773773,1.431488-0.2321396
		c0.440033-0.1547699,0.8220978-0.3820572,1.1390533-0.6722412c0.3191833-0.2926178,0.5705261-0.6480713,0.7495575-1.0760803
		c0.1824951-0.4207611,0.2708893-0.8923035,0.2708893-1.4170609c0-0.945488-0.3035736-1.6806183-0.916687-2.2102051
		c-0.6103821-0.5319901-1.4956207-0.7979813-2.6549835-0.7979813H222.0445099z M232.6362152,116.0181122h-2.4061279
		l-2.8860016-4.8677521c-0.2783356-0.4522018-0.5477448-0.8415375-0.8042755-1.1583176
		c-0.2622223-0.3240356-0.5306549-0.5827713-0.8027802-0.7834702c-0.2756042-0.2007217-0.5695343-0.3482285-0.8849945-0.4401245
		c-0.3142395-0.0967178-0.6698151-0.1426468-1.0664978-0.1426468h-1.7410278v7.3923111h-1.9707947v-17.243927h5.2463226
		c0.7676239,0,1.4763031,0.0943146,2.1268005,0.2853317c0.6492615,0.1862106,1.2126007,0.4715424,1.6927338,0.8560486
		c0.477417,0.3869019,0.8535461,0.8608475,1.1194916,1.4339676c0.2721405,0.5706863,0.4051056,1.2405243,0.4051056,2.0094833
		c0,0.6021423-0.0918732,1.151062-0.2780762,1.6492004c-0.184967,0.4981384-0.4499207,0.945488-0.7921295,1.339653
		c-0.3444519,0.389328-0.7554932,0.7254486-1.2391052,1.0035477c-0.4801331,0.2708282-1.0241547,0.4860535-1.627594,0.6408157
		v0.0459366c0.3023376,0.1281662,0.5635834,0.2780991,0.7834625,0.440094
		c0.2213745,0.1620178,0.4328461,0.355484,0.6361389,0.5828018c0.198349,0.224884,0.3976746,0.4787979,0.5947876,0.768959
		c0.1958618,0.2853546,0.4147644,0.6142197,0.6564331,0.9914474L232.6362152,116.0181122z M207.8269196,100.2541122
		c-1.7737122,0-3.2123871,0.6552963-4.3187408,1.9707794c-1.1100922,1.3203354-1.6637726,3.0493164-1.6637726,5.191803
		c0,2.1425095,0.5405579,3.8642349,1.6201782,5.1652069c1.0774078,1.305809,2.4846191,1.9611359,4.2234192,1.9611359
		c1.8534393,0,3.312912-0.6287231,4.3791504-1.871666c1.0665131-1.2429352,1.6008759-2.9840012,1.6008759-5.2232285
		c0-2.2900162-0.5162964-4.0649338-1.5535736-5.317543C211.0769348,100.8804169,209.6491547,100.2541122,207.8269196,100.2541122z
		 M207.6830444,116.2647705c-2.4350891,0-4.3865814-0.8028336-5.8542328-2.408493
		c-1.4654083-1.6056671-2.200592-3.6901093-2.200592-6.2582016c0-2.7567291,0.7495422-4.9620819,2.242691-6.6040268
		c1.4946289-1.6443481,3.5280914-2.4665222,6.1011047-2.4665222c2.3759155,0,4.2885437,0.7980042,5.7395935,2.3963928
		c1.4483185,1.5935822,2.1726074,3.6828766,2.1726074,6.2533722c0,2.8026657-0.7411194,5.0152893-2.2295685,6.6402969
		C212.1699219,115.4474258,210.1797943,116.2647705,207.6830444,116.2647705z M196.4264832,100.4983368h-6.8954773v6.1614838
		h6.4009857v1.7217255h-6.4009857v7.6365662h-1.9718018v-17.243927h8.8672791V100.4983368z M173.7670135,100.4983368v6.4057083
		h2.8075256c0.5150452,0,0.9927063-0.0773773,1.4352112-0.2321396c0.4400177-0.1547699,0.8161469-0.3820572,1.1390381-0.6722412
		c0.3179474-0.2926178,0.5695343-0.6480713,0.7483215-1.0760803c0.1837311-0.4207611,0.2721252-0.8923035,0.2721252-1.4170609
		c0-0.945488-0.3060608-1.6806183-0.9176788-2.2102051c-0.6093903-0.5319901-1.4943848-0.7979813-2.6552277-0.7979813H173.7670135z
		 M184.3587189,116.0181122h-2.4061279l-2.8872375-4.8677521c-0.2780762-0.4522018-0.5465088-0.8415375-0.8052673-1.1583176
		c-0.2624817-0.3240356-0.5296631-0.5827713-0.8040161-0.7834702c-0.2721405-0.2007217-0.5682983-0.3482285-0.8815308-0.4401245
		c-0.3154755-0.0967178-0.6698151-0.1426468-1.0687256-0.1426468h-1.7388v7.3923111h-1.9707947v-17.243927h5.2450867
		c0.7688599,0,1.4775391,0.0943146,2.1268005,0.2853317c0.6504974,0.1862106,1.2126007,0.4715424,1.6939697,0.8560486
		c0.477417,0.3869019,0.8510742,0.8608475,1.1194916,1.4339676c0.2721405,0.5706863,0.4051056,1.2405243,0.4051056,2.0094833
		c0,0.6021423-0.0931091,1.151062-0.2793121,1.6492004c-0.1862183,0.4981384-0.4509125,0.945488-0.7906494,1.339653
		c-0.344696,0.389328-0.7557373,0.7254486-1.2393341,1.0035477c-0.4813843,0.2708282-1.0241699,0.4860535-1.6276093,0.6408157
		v0.0459366c0.3011017,0.1281662,0.5598602,0.2780991,0.7812347,0.440094
		c0.2236023,0.1620178,0.435318,0.355484,0.6321716,0.5828018c0.2033081,0.224884,0.4016418,0.4787979,0.5975189,0.768959
		c0.1993256,0.2853546,0.4169922,0.6142197,0.660141,0.9914474L184.3587189,116.0181122z M167.6067352,116.0181122h-9.3583069
		v-17.243927h8.8687592v1.7241516h-6.9001923v5.9148254h6.4056854v1.7217255h-6.4056854v6.1614914h7.38974V116.0181122z
		 M145.4382935,100.4983368v7.1432419h2.1121979c1.3965759,0,2.4606018-0.3216019,3.1933136-0.9624252
		c0.7339478-0.6480713,1.100174-1.5597076,1.100174-2.7325058c0-2.299675-1.3468018-3.4483109-4.0372009-3.4483109H145.4382935z
		 M145.4382935,109.3633347v6.6547775h-1.969574v-17.243927h4.7552948c1.8524475,0,3.2911224,0.4425201,4.3090973,1.3299866
		c1.0157318,0.8874741,1.5270691,2.1400833,1.5270691,3.7529831c0,1.6177521-0.5705261,2.9380875-1.7095795,3.9658127
		c-1.1378021,1.0301208-2.678009,1.5403671-4.6138916,1.5403671H145.4382935z"/>
	<path id="Symphony" fill="#0096FF" d="M480.0227661,73.9032745l-5.4699097,15.2949982
		c-0.1740723,0.4860229-0.6334229,0.8584213-1.3782654,1.1244125c-0.7448425,0.2611694-1.8764648,0.394165-3.4047852,0.394165
		l-1.9150696-0.1208878c-0.4838562-0.0749817-0.8513184-0.2055511-1.1125793-0.394165
		c-0.2562866-0.1813812-0.4013672-0.4280319-0.4350586-0.7351303c-0.0242615-0.3047943,0.0482788-0.6722641,0.2223511-1.1001511
		l5.6633301-14.4632416l-0.7785034-0.5801773l-0.5078735-0.8609695l-14.6348572-38.6435928
		c-0.2466125-0.6287079-0.3627625-1.1219673-0.3627625-1.4760628c0-0.3605347,0.1161499-0.6408405,0.3627625-0.8560219
		c0.2466431-0.2154312,0.6383667-0.3580589,1.1898193-0.4306126l2.1956482-0.1099434l2.1327515,0.0663624l1.2380981,0.2491055
		c0.295166,0.1198483,0.5224915,0.2902107,0.6579285,0.5150509l0.4350891,0.9201546l11.7232971,32.4384804h0.1257935
		l11.3073425-32.6125565c0.1886597-0.5754681,0.4110413-0.9431839,0.6673279-1.1098328
		c0.2515869-0.1644192,0.6433105-0.2842674,1.1608276-0.3568211l2.2295837-0.1099434l2.0988159,0.1099434
		c0.5514526,0.0725536,0.9528503,0.2151814,1.2187805,0.4306126c0.2562866,0.2151814,0.3917542,0.4954872,0.3917542,0.8560219
		l-0.2756042,1.3468056L480.0227661,73.9032745 M453.8678894,72.5032272l-0.2079773,0.6165771l-0.662384,0.4306107
		l-1.2720337,0.2659454l-2.0312195,0.0869141l-2.0941162-0.0869141l-1.2720337-0.2659454l-0.6576843-0.4306107l-0.2080078-0.6044388
		V48.8802757c0-2.3070793-0.1693726-4.1592751-0.5028992-5.5595665c-0.3338013-1.403511-0.8223572-2.6091728-1.4654236-3.6259003
		c-0.6383667-1.0179672-1.4750671-1.7967339-2.4955139-2.3372879c-1.0253906-0.5403061-2.200592-0.8074875-3.5498962-0.8074875
		c-1.7412415,0-3.4726257,0.655201-5.2089233,1.9683304c-1.7264099,1.3153572-3.5449219,3.244072-5.4553223,5.7962914v28.2007103
		l-0.2030334,0.6044388l-0.6673584,0.4306107l-1.2673035,0.2659454l-2.0941162,0.0869141l-2.0359497-0.0869141l-1.3009949-0.2659454
		l-0.6576843-0.4256592l-0.1743164-0.6093903V32.3303375l0.1451111-0.602211l0.6190491-0.4474487l1.1705017-0.2684212
		l1.8814087-0.0663624l1.8668213,0.0663624l1.1462402,0.2684212l0.5801697,0.4474487l0.1740723,0.602211v5.3126907
		c2.2587891-2.6346779,4.5076599-4.5668564,6.7516174-5.7915878c2.2392273-1.2259655,4.5123596-1.8403111,6.8095398-1.8403111
		c2.6599426,0,4.9041138,0.4583435,6.7369995,1.3723106c1.8328857,0.9142132,3.3079529,2.1342373,4.4398193,3.6625462
		c1.1269226,1.5270729,1.9344177,3.3200912,2.4276733,5.3778152c0.4885559,2.0579681,0.7351685,4.5195618,0.7351685,7.3899727
		V72.5032272z M404.3681641,52.5123634c0-2.1666756-0.1933899-4.2174644-0.585144-6.1518707
		c-0.3966675-1.927227-1.0496521-3.6249123-1.9589233-5.0819092c-0.9089966-1.4617004-2.142395-2.6151123-3.6947327-3.4590034
		c-1.5476074-0.8451271-3.4726257-1.2695465-5.7843933-1.2695465c-2.1376953,0-3.9753113,0.3867798-5.5132751,1.1593552
		c-1.5332336,0.7725754-2.8052673,1.865818-3.8014526,3.2779961c-0.9961853,1.4072227-1.7313538,3.0806389-2.2199097,5.0175247
		c-0.4786682,1.93713-0.7255249,4.0480919-0.7255249,6.3309021c0,2.2003517,0.2032776,4.2655029,0.5950317,6.1976814
		c0.3964233,1.9297066,1.0590515,3.617485,1.9779663,5.0635834c0.9238892,1.4436264,2.166687,2.5873871,3.714325,3.4386978
		c1.5525818,0.843895,3.4822693,1.2670746,5.7841492,1.2670746c2.1087341,0,3.9416199-0.3867798,5.4942017-1.1605911
		c1.5525818-0.773819,2.8292847-1.8571548,3.82547-3.2549706c0.9964294-1.3953362,1.7266541-3.0613251,2.1956482-4.9959831
		C404.1358948,56.9519463,404.3681641,54.8288498,404.3681641,52.5123634z M412.7785645,51.9898872
		c0,3.3250427-0.4402466,6.3888435-1.3203125,9.184227c-0.8802795,2.7978592-2.1956482,5.2062111-3.9512634,7.2327385
		c-1.7509155,2.0190887-3.9465637,3.6006393-6.5822449,4.7322617c-2.6309509,1.1341019-5.6828613,1.7023926-9.1455994,1.7023926
		c-3.3804932,0-6.3356018-0.5029144-8.8457336-1.4990921c-2.5051575-0.9964218-4.5943298-2.4425278-6.2727051-4.3479614
		c-1.6731567-1.9007339-2.9258728-4.2125168-3.7479858-6.932869c-0.8173828-2.7156487-1.2284241-5.8012428-1.2284241-9.2592545
		c0-3.3151398,0.4353027-6.3692856,1.3009949-9.1696205c0.8607178-2.7941437,2.1763306-5.2037354,3.9220581-7.2290192
		c1.7556152-2.0252876,3.9368896-3.5959396,6.558197-4.7117157c2.6116638-1.1197376,5.6729736-1.6808453,9.1696167-1.6808453
		c3.3805237,0,6.3259583,0.5006866,8.8407898,1.4993401c2.5101318,0.9927082,4.6089478,2.4447536,6.2776794,4.3479595
		c1.6781006,1.9007339,2.9355164,4.2112732,3.7675171,6.9279137
		C412.3578796,45.5069466,412.7785645,48.572979,412.7785645,51.9898872z M366.0789185,72.5032272l-0.2080078,0.6165771
		l-0.6576843,0.4306107l-1.2670593,0.2659454l-2.0361938,0.0869141l-2.0941162-0.0869141l-1.2670593-0.2659454l-0.6673584-0.4306107
		l-0.2032776-0.6044388V48.8802757c0-2.3070793-0.1691284-4.1592751-0.5029297-5.5595665
		c-0.338501-1.403511-0.8270569-2.6091728-1.4703674-3.6259003c-0.6383362-1.0179672-1.4701233-1.7967339-2.4905396-2.3372879
		c-1.0254211-0.5403061-2.2053223-0.8074875-3.5451965-0.8074875c-1.7409973,0-3.4773254,0.655201-5.2133789,1.9683304
		c-1.7266541,1.3153572-3.5451965,3.244072-5.4553223,5.7962914v28.2007103l-0.2080078,0.6044388l-0.667572,0.4306107
		l-1.2670898,0.2659454l-2.0891724,0.0869141l-2.0411072-0.0869141l-1.2911072-0.2659454l-0.667572-0.4402695l-0.1741028-0.6069183
		V11.8593397l0.1741028-0.6396027c0.1161194-0.1862106,0.3434448-0.3384972,0.667572-0.4608212l1.2911072-0.2718868
		l2.0411072-0.0859241l2.0891724,0.0955811l1.2670898,0.2743635l0.667572,0.462059l0.2080078,0.6418314v24.7899895
		c2.0988159-2.2454185,4.2122498-3.915123,6.3499756-5.0093536c2.1280212-1.0967102,4.2704468-1.6444454,6.4324036-1.6444454
		c2.6646729,0,4.908844,0.4583435,6.727356,1.3723106c1.8182678,0.9142132,3.293335,2.1342373,4.4202576,3.6625462
		c1.1219788,1.5270729,1.9346619,3.3200912,2.4229736,5.3778152c0.4885559,2.0579681,0.7255249,4.5388756,0.7255249,7.4503937
		V72.5032272z M282.8553162,72.5032272l-0.203064,0.6165771l-0.6576843,0.4306107l-1.2623596,0.2659454l-2.0361938,0.0869141
		l-2.0648804-0.0869141l-1.2913513-0.2659454l-0.6819458-0.4306107l-0.2080078-0.6044388V47.9878502
		c0-1.709568-0.1401367-3.2668495-0.4206848-4.667141c-0.2805786-1.403511-0.735199-2.6091728-1.3591919-3.6259003
		c-0.6190491-1.0179672-1.4121704-1.7967339-2.3697205-2.3372879c-0.95755-0.5403061-2.0891724-0.8074875-3.3901672-0.8074875
		c-1.605835,0-3.2260132,0.655201-4.8461914,1.9683304c-1.6248779,1.3153572-3.4094849,3.244072-5.3537903,5.7962914v28.2007103
		l-0.2080078,0.6044388l-0.6866455,0.4306107l-1.2960358,0.2659454l-2.0458374,0.0869141l-2.0022583-0.0869141l-1.3287201-0.2659454
		l-0.6638794-0.4306107l-0.1753082-0.6044388V47.9878502c0-1.709568-0.1547699-3.2668495-0.4667664-4.667141
		c-0.3107605-1.403511-0.7750549-2.6091728-1.3950958-3.6259003c-0.6168213-1.0179672-1.3978119-1.7967339-2.3397522-2.3372879
		c-0.9441833-0.5403061-2.065155-0.8074875-3.3574829-0.8074875c-1.6070557,0-3.223526,0.655201-4.8605347,1.9683304
		c-1.6347961,1.3153572-3.409729,3.244072-5.3248291,5.7962914v28.2007103l-0.2055206,0.6044388l-0.6638641,0.4306107
		l-1.2683105,0.2659454l-2.0941315,0.0869141l-2.0349426-0.0869141l-1.2997589-0.2659454l-0.6613922-0.4256592l-0.1763-0.6093903
		V32.3303375l0.1522827-0.602211l0.612854-0.4474487l1.1667938-0.2684212l1.8885956-0.0663624l1.8621063,0.0663624
		l1.1474762,0.2684212l0.5826416,0.4474487l0.1728363,0.602211v5.3126907
		c2.2597809-2.6346779,4.4457703-4.5668564,6.5678864-5.7915878c2.1206055-1.2259655,4.2642517-1.8403111,6.4346466-1.8403111
		c1.6637573,0,3.1544342,0.2032948,4.4735107,0.6071644c1.3155975,0.4048576,2.4823914,0.968441,3.4919281,1.6927299
		c1.0157471,0.723053,1.8717651,1.5909576,2.5873871,2.598278c0.7062073,1.0033569,1.3009949,2.1280479,1.779892,3.3649101
		c1.3492889-1.5186539,2.6309662-2.8052902,3.8497467-3.854702c1.2185364-1.0506516,2.3843384-1.9029617,3.5063171-2.554697
		c1.1219482-0.6504974,2.2199097-1.1244431,3.2836914-1.4158916c1.0689697-0.2914486,2.1426392-0.4377918,3.2210388-0.4377918
		c2.6165771,0,4.8122253,0.4583435,6.5822144,1.3723106c1.7702332,0.9142132,3.2017517,2.1377048,4.2947388,3.6625462
		c1.0929871,1.5270729,1.8764648,3.3200912,2.3457031,5.3778152c0.4642944,2.0579681,0.6963196,4.2246437,0.6963196,6.5025024
		V72.5032272z M203.5938416,73.9032745l-5.4709167,15.2949982c-0.1753082,0.4860229-0.6324158,0.8584213-1.3784943,1.1244125
		c-0.7458344,0.2611694-1.8789368,0.394165-3.4060211,0.394165l-1.9126129-0.1208878
		c-0.4860687-0.0749817-0.857254-0.2055511-1.1160278-0.394165c-0.2587585-0.1813812-0.4013824-0.4280319-0.4303589-0.7351303
		c-0.0302124-0.3047943,0.0423431-0.6722641,0.2186432-1.1001511l5.6635742-14.4632416l-0.7750549-0.5801773l-0.5115814-0.8609695
		l-14.6345978-38.6398773c-0.2444-0.6324234-0.3639984-1.1256828-0.3639984-1.4797783
		c0-0.3605347,0.1195984-0.6408405,0.3639984-0.8560219c0.2429199-0.2154312,0.6396027-0.3580589,1.1861115-0.4306126
		l2.1981201-0.1099434l2.1376953,0.0663624l1.2319183,0.2491055c0.3011017,0.1198483,0.5212402,0.2939262,0.6601562,0.5150509
		l0.4377899,0.9201546l11.7171326,32.4384804h0.1282654l11.3095551-32.6125565
		c0.186203-0.5754681,0.4051056-0.9431839,0.6638641-1.1098328c0.2587738-0.1644192,0.6457977-0.2842674,1.1608429-0.3568211
		l2.2317963-0.1099434l2.1003265,0.1099434c0.5477295,0.0725536,0.9491272,0.2151814,1.2138214,0.4306126
		c0.2624817,0.2151814,0.395462,0.4954872,0.395462,0.8560219l-0.2793274,1.3468056L203.5938416,73.9032745z M179.794342,57.4308434
		c0,2.7614594-0.5101013,5.2255249-1.5305481,7.3825417c-1.0194397,2.1595001-2.438797,3.9923782-4.2548523,5.4917221
		c-1.8135681,1.5040436-3.9465637,2.6359177-6.4056854,3.3951187c-2.4556427,0.759201-5.1036987,1.1412811-7.9424133,1.1412811
		c-1.9854126,0-3.8257294-0.1569901-5.5184631-0.4593353c-1.6937103-0.3095245-3.2002411-0.6844254-4.5230255-1.1244431
		c-1.3227844-0.4474487-2.4350891-0.9020844-3.3334503-1.3710709c-0.9020844-0.4764252-1.5270844-0.8778152-1.881424-1.2140808
		c-0.3553314-0.3335495-0.6165771-0.7834702-0.7822266-1.3443298c-0.1669006-0.5586319-0.249115-1.305954-0.249115-2.2513657
		l0.0896454-1.6516266l0.2684174-1.0640182l0.4605713-0.5707664l0.6433258-0.1569939
		c0.4169922,0,1.0142517,0.2394485,1.7855835,0.7277603l2.9853058,1.5862503
		c1.2163086,0.5660629,2.6782532,1.1028976,4.3912964,1.6008606c1.7132874,0.5031662,3.6915131,0.7545013,5.9379272,0.7545013
		c1.6927338,0,3.2450562-0.2320175,4.65625-0.6916046c1.4121704-0.4667587,2.6235352-1.1219635,3.6417389-1.9732819
		c1.0142517-0.8510666,1.7955017-1.8957787,2.3395233-3.1289291c0.5464935-1.2333946,0.818634-2.6406174,0.818634-4.2174644
		c0-1.6731682-0.3724213-3.0999527-1.1160278-4.2801132c-0.7423706-1.1848602-1.7303619-2.224617-2.9563293-3.1266975
		c-1.2234955-0.8971291-2.6213074-1.7192268-4.1857758-2.4640656l-4.8157196-2.2778587
		c-1.6456757-0.7738113-3.2440643-1.6298332-4.7941742-2.5680695c-1.5510864-0.9369926-2.9404755-2.0470734-4.1652069-3.3275185
		c-1.2259674-1.2779655-2.2186737-2.7760658-2.9754028-4.4928169c-0.7582245-1.7169991-1.1402893-3.7724915-1.1402893-6.1664829
		c0-2.4591141,0.436554-4.657238,1.3118896-6.5894165c0.8790436-1.9284668,2.0941162-3.5449295,3.6551208-4.8508778
		c1.5644531-1.3019867,3.4191284-2.2959337,5.5773926-2.9815941c2.1533051-0.6854124,4.4809265-1.0300989,6.9823914-1.0300989
		c1.2816772,0,2.5705414,0.105238,3.8668365,0.3132391c1.2923279,0.2102299,2.5111084,0.488307,3.6548615,0.8329945
		c1.1427765,0.3446865,2.1570282,0.7314701,3.0482025,1.159605c0.8921814,0.427887,1.4750824,0.7725735,1.7590942,1.0360413
		l0.5611115,0.6408405l0.2248383,0.6358891l0.1329803,0.9275856l0.0423431,1.3854332l-0.0663757,1.4448643l-0.193634,1.0580788
		l-0.3724213,0.6358891l-0.5343628,0.2020588c-0.3204193,0-0.8196259-0.1886864-1.5028076-0.5660591l-2.4955139-1.2804451
		c-0.9818115-0.4702301-2.1486053-0.9043083-3.4931793-1.2985191c-1.3492737-0.3952007-2.864212-0.5898304-4.546051-0.5898304
		c-1.5681763,0-2.9295959,0.2186489-4.0867157,0.6552029c-1.155899,0.4377918-2.1146851,1.0216789-2.8666992,1.7543869
		c-0.7557373,0.7277565-1.3190765,1.5936832-1.6927338,2.5935726c-0.3748932,1.0045948-0.5623474,2.0649052-0.5623474,3.1809292
		c0,1.6444435,0.3701935,3.0590973,1.1100769,4.2427216c0.7386475,1.1801567,1.7229462,2.2270966,2.9560852,3.1413078
		c1.2272186,0.9139671,2.6275024,1.7531509,4.1932068,2.512352l4.7926788,2.2961807
		c1.629837,0.7748032,3.2284698,1.6261215,4.7941742,2.5534592c1.5681763,0.9285774,2.965744,2.0265236,4.1966705,3.2839394
		c1.2296753,1.2621193,2.2223816,2.747097,2.975647,4.4638443C179.4206848,53.0685196,179.794342,55.0947952,179.794342,57.4308434z
		 M303.0180054,36.4871368h-5.6343384v25.8911552c2.4472351,1.6298332,5.0056458,2.4472313,7.6801758,2.4472313
		c3.7142944,0,6.7610168-1.3832092,9.1309814-4.1446686c2.3697205-2.7639351,3.5595398-6.3113403,3.5595398-10.6471672
		c0-2.7929077-0.5610962-5.2619247-1.6830444-7.4033432c-1.1219788-2.1399345-2.6455994-3.6984558-4.5799866-4.6753159
		C309.561615,36.9779205,306.7372742,36.4871368,303.0180054,36.4871368z M289.4135132,90.5064697V30.2904453h13.8414612
		c7.0804749,0,12.5937195,1.7665195,16.5449829,5.3055058c3.9465637,3.5355186,5.9245605,8.4817314,5.9245605,14.8391304
		c0,6.0042915-1.8667908,10.9373779-5.6004333,14.7967834c-3.7289124,3.8641129-8.4829407,5.7891083-14.2574463,5.7891083
		c-2.5440674,0-5.3731079-0.5611038-8.4829712-1.6855469v21.1710434H289.4135132z"/>
</g>
<g id="Icon">
	<path id="RGB_57BC57" fill="#57BC57" d="M47.0625267,40.7055931c7.6510658,0,14.8293953,2.0470734,21.0090065,5.6209755
		c-12.5442123,7.2594757-20.9872398,20.8156891-21.0065804,36.3449326c6.1856499,3.5862808,13.3772812,5.641777,21.0452843,5.641777
		c7.637764,0,14.7979431-2.0408859,20.9714584-5.5907669c0,23.2070236-18.8132553,42.0203323-42.0191689,42.0203323
		S5.0443978,105.9295349,5.0443978,82.7225113C5.0443978,59.5165482,23.8565903,40.7055931,47.0625267,40.7055931"/>
	<path id="RGB_217AB8" fill="#217AB8" d="M89.0816956,40.7055931c23.2084427,0,42.0193939,18.810955,42.0193939,42.0169182
		c0,23.2070236-18.8109512,42.0203323-42.0193939,42.0203323c-23.2070541,0-42.0167427-18.8133087-42.0167427-42.0203323
		c0-0.0170898,0-0.0314484,0-0.0510101c6.1856499,3.5862808,13.3772812,5.641777,21.0452843,5.641777
		c7.637764,0,14.7979431-2.0408859,20.9714584-5.6029053c-0.0034637-15.5463257-8.4538422-29.1196213-21.0101624-36.3838043
		C74.2523727,42.7526665,81.4294968,40.7055931,89.0816956,40.7055931"/>
	<path id="RGB_70A7D6" fill="#70A7D6" d="M68.1102371,4.2747369c23.2047501,0,42.0179291,18.8131828,42.0179291,42.0203819
		c0,15.5658913-8.4658813,29.1582565-21.0464706,36.4152527c-0.0034637-15.5463257-8.4538422-29.1196213-21.0101624-36.3838043
		c-12.5442123,7.2594757-20.9872398,20.8156891-21.0065804,36.3449326
		c-12.5406418-7.2713623-20.9750767-20.8397064-20.9750767-36.3763809
		C26.0898762,23.0879192,44.9018936,4.2747369,68.1102371,4.2747369"/>
	<path id="RGB_0A600A" fill="#0A600A" d="M89.0816956,82.7225113c0,15.5535355-8.451416,29.1339417-21.0101624,36.3981171
		c-12.5623627-7.2641754-21.0065804-20.8445816-21.0065804-36.3981171c0-0.0170898,0-0.0314484,0-0.0510101
		c6.1856499,3.5862808,13.3772812,5.641777,21.0452843,5.641777C75.7480011,88.3132782,82.9081802,86.2723923,89.0816956,82.7225113
		"/>
	<path id="RGB_0F7C0F" fill="#0F7C0F" d="M47.0625267,40.7055931c7.6510658,0,14.8293953,2.0470734,21.0090065,5.6209755
		c-12.5442123,7.2594757-20.9872398,20.8156891-21.0065804,36.3449326
		c-12.538166-7.2713623-20.971611-20.8322792-20.9750767-36.3667221
		C32.2598267,42.7417717,39.4234734,40.7055931,47.0625267,40.7055931"/>
	<path id="RGB_125C9B" fill="#125C9B" d="M89.0816956,40.7055931c7.6680527,0,14.8559723,2.0530167,21.0464706,5.6440048
		c-0.0215454,15.541626-8.4792557,29.11343-21.0464706,36.360775c-0.0034637-15.5463257-8.4538422-29.1196213-21.0101624-36.3838043
		C74.2523727,42.7526665,81.4294968,40.7055931,89.0816956,40.7055931"/>
</g>
</svg>
